<?xml version="1.0" standalone="no"?>
<!DOCTYPE svg PUBLIC "-//W3C//DTD SVG 20010904//EN"
 "http://www.w3.org/TR/2001/REC-SVG-20010904/DTD/svg10.dtd">
<svg version="1.0" xmlns="http://www.w3.org/2000/svg"
 width="700.000000pt" height="700.000000pt" viewBox="0 0 700.000000 700.000000"
 preserveAspectRatio="xMidYMid meet">
<metadata>
Created by potrace 1.14, written by Peter Selinger 2001-2017
</metadata>
<g transform="translate(0.000000,700.000000) scale(0.100000,-0.100000)"
fill="#000000" stroke="none">
<path d="M2157 6994 c-1 -1 -51 -4 -112 -8 -228 -13 -420 -55 -645 -141 -654
-250 -1156 -815 -1331 -1499 -50 -195 -64 -320 -63 -551 1 -175 3 -209 25
-345 68 -433 289 -861 609 -1180 135 -136 245 -221 445 -346 100 -62 279 -142
430 -192 93 -30 235 -66 241 -60 5 6 10 29 19 103 5 47 13 94 22 140 2 11 6
36 9 55 3 19 17 78 30 130 14 52 27 100 28 105 9 40 79 238 107 300 10 23 19
47 21 54 2 7 -31 27 -82 50 -302 132 -518 397 -581 715 -6 28 -12 58 -14 66
-2 8 -4 17 -4 20 -1 4 -49 6 -108 5 l-108 0 -1 93 -1 92 103 0 102 0 0 125 -1
125 -102 0 -102 0 1 93 1 92 109 0 109 1 29 104 c134 480 530 752 1108 764
136 2 324 -14 370 -32 l25 -10 0 -150 c-1 -83 -4 -154 -8 -158 -3 -4 -26 -2
-49 4 -89 23 -308 33 -413 20 -232 -29 -403 -118 -519 -272 -58 -76 -137 -249
-121 -265 3 -2 191 -5 418 -5 l412 -1 0 -90 0 -90 -432 -3 -433 -2 0 -125 0
-125 435 0 434 0 -1 -90 c-1 -55 -6 -91 -12 -91 -6 -1 -195 -3 -421 -4 l-410
-1 3 -25 c8 -78 72 -219 139 -303 47 -61 134 -133 204 -170 86 -46 80 -49 160
71 336 502 819 881 1389 1090 144 53 349 109 475 129 21 3 46 7 57 9 20 4 116
17 150 20 32 3 32 2 3 125 -26 110 -87 273 -153 410 -174 359 -490 703 -832
907 -345 205 -676 301 -1098 317 -34 1 -64 1 -65 0z"/>
<path d="M4588 4816 c-1 -2 -61 -6 -133 -10 -71 -3 -157 -10 -190 -16 -33 -5
-77 -12 -99 -16 -49 -7 -57 -9 -136 -29 -36 -8 -72 -17 -81 -20 -9 -2 -64 -19
-121 -38 -285 -96 -563 -253 -798 -452 -73 -61 -267 -262 -310 -320 -25 -33
-48 -62 -51 -65 -27 -21 -173 -261 -229 -375 -141 -289 -216 -555 -246 -875
-4 -47 -4 -347 0 -385 2 -16 6 -55 10 -85 15 -128 24 -179 60 -325 99 -401
334 -808 640 -1110 253 -249 580 -453 896 -558 185 -62 324 -96 455 -113 28
-3 77 -9 110 -14 100 -13 448 -5 570 14 431 66 827 237 1150 495 405 323 690
753 826 1244 17 60 32 119 35 131 2 11 6 32 9 46 10 46 13 66 20 125 4 33 10
69 12 80 9 38 11 411 2 490 -14 125 -17 145 -39 256 -24 117 -24 118 -79 285
-212 643 -706 1176 -1342 1447 -135 58 -323 116 -464 143 -11 2 -30 6 -42 8
-22 5 -88 15 -138 21 -16 2 -84 7 -150 10 -66 4 -125 8 -132 10 -6 2 -13 2
-15 1z m114 -890 c3 -6 4 -66 3 -133 0 -78 3 -123 10 -124 5 -1 26 -3 45 -5
397 -44 687 -253 764 -550 29 -114 47 -105 -191 -102 l-207 3 -10 35 c-26 95
-127 198 -242 244 -76 31 -162 47 -167 32 -1 -6 -3 -171 -3 -366 l1 -354 65
-18 c36 -9 76 -19 90 -21 14 -3 45 -10 70 -16 454 -119 656 -331 644 -681 -3
-114 -5 -128 -30 -204 -30 -92 -84 -178 -164 -257 -124 -123 -281 -198 -512
-244 -9 -2 -48 -7 -85 -10 -37 -4 -70 -9 -73 -12 -2 -2 -5 -64 -5 -136 l0
-132 -118 0 -117 -1 0 133 c0 150 9 137 -95 148 -162 16 -350 83 -471 166 -70
48 -159 143 -200 211 -39 68 -79 178 -89 250 l-7 47 210 0 211 1 16 -49 c44
-133 171 -236 347 -281 51 -14 70 -15 74 -7 2 7 3 183 2 392 l-3 380 -60 12
c-199 43 -360 105 -465 177 -316 218 -352 665 -78 947 125 129 311 216 531
250 l77 12 0 137 0 136 114 1 c77 1 116 -3 118 -11z"/>
<path d="M4373 3306 c-163 -59 -253 -166 -261 -309 -6 -101 32 -179 117 -241
47 -34 149 -78 209 -91 l32 -7 0 336 c0 383 10 350 -97 312z"/>
<path d="M4708 2197 c-2 -7 -4 -169 -3 -362 l1 -350 39 -1 c47 -1 138 25 209
60 151 74 228 242 182 399 -26 89 -118 168 -251 216 -84 30 -174 49 -177 38z"/>
</g>
</svg>
